HIERARCHY
ROOT Hips
{
	OFFSET 0.000000 0.000000 0.000000
	CHANNELS 6 Xposition Yposition Zposition Zrotation Xrotation Yrotation
	JOINT Spine1
	{
		OFFSET 0.000000 4.165421 0.000002
		CHANNELS 6 Xposition Yposition Zposition Zrotation Xrotation Yrotation
		JOINT Neck
		{
			OFFSET 0.000000 3.320820 0.000002
			CHANNELS 6 Xposition Yposition Zposition Zrotation Xrotation Yrotation
			JOINT Head
			{
				OFFSET 0.000000 2.111520 0.272454
				CHANNELS 6 Xposition Yposition Zposition Zrotation Xrotation Yrotation
				End Site
				{
					OFFSET 0.000000 2.724534 0.000002
				}
			}
		}
		JOINT LeftShoulder
		{
			OFFSET 0.548651 2.681385 -0.072018
			CHANNELS 6 Xposition Yposition Zposition Zrotation Xrotation Yrotation
			JOINT LeftArm
			{
				OFFSET 1.957740 0.000000 0.000000
				CHANNELS 6 Xposition Yposition Zposition Zrotation Xrotation Yrotation
				JOINT LeftForeArm
				{
					OFFSET 3.838815 0.000000 0.000000
					CHANNELS 6 Xposition Yposition Zposition Zrotation Xrotation Yrotation
					JOINT LeftHand
					{
						OFFSET 3.567673 0.000000 0.000000
						CHANNELS 6 Xposition Yposition Zposition Zrotation Xrotation Yrotation
						End Site
						{
							OFFSET 2.043401 0.000000 0.000000
						}
					}
				}
			}
		}
		JOINT RightShoulder
		{
			OFFSET -0.541081 2.681385 -0.072018
			CHANNELS 6 Xposition Yposition Zposition Zrotation Xrotation Yrotation
			JOINT RightArm
			{
				OFFSET -1.957740 0.000000 0.000000
				CHANNELS 6 Xposition Yposition Zposition Zrotation Xrotation Yrotation
				JOINT RightForeArm
				{
					OFFSET -3.838815 0.000000 0.000000
					CHANNELS 6 Xposition Yposition Zposition Zrotation Xrotation Yrotation
					JOINT RightHand
					{
						OFFSET -3.567675 0.000000 0.000000
						CHANNELS 6 Xposition Yposition Zposition Zrotation Xrotation Yrotation
						End Site
						{
							OFFSET -2.043401 0.000000 0.000000
						}
					}
				}
			}
		}
	}
	JOINT LeftUpLeg
	{
		OFFSET 1.362270 0.000000 0.000000
		CHANNELS 6 Xposition Yposition Zposition Zrotation Xrotation Yrotation
		JOINT LeftLeg
		{
			OFFSET 0.000000 -5.729235 -0.000004
			CHANNELS 6 Xposition Yposition Zposition Zrotation Xrotation Yrotation
			JOINT LeftFoot
			{
				OFFSET 0.000000 -6.006450 -0.000004
				CHANNELS 6 Xposition Yposition Zposition Zrotation Xrotation Yrotation
				JOINT LeftToeBase
				{
					OFFSET 0.000000 -0.885476 2.043405
					CHANNELS 6 Xposition Yposition Zposition Zrotation Xrotation Yrotation
					End Site
					{
						OFFSET 0.000000 0.000000 0.544906
					}
				}
			}
		}
	}
	JOINT RightUpLeg
	{
		OFFSET -1.362270 0.000000 0.000000
		CHANNELS 6 Xposition Yposition Zposition Zrotation Xrotation Yrotation
		JOINT RightLeg
		{
			OFFSET 0.000000 -5.729235 -0.000004
			CHANNELS 6 Xposition Yposition Zposition Zrotation Xrotation Yrotation
			JOINT RightFoot
			{
				OFFSET 0.000000 -6.006450 -0.000004
				CHANNELS 6 Xposition Yposition Zposition Zrotation Xrotation Yrotation
				JOINT RightToeBase
				{
					OFFSET 0.000000 -0.885476 2.043405
					CHANNELS 6 Xposition Yposition Zposition Zrotation Xrotation Yrotation
					End Site
					{
						OFFSET 0.000000 0.000000 0.544906
					}
				}
			}
		}
	}
}
MOTION
Frames: 5
Frame Time: 0.041667
-0.592149 11.367855 0.312692 2.489019 18.342051 -1.957855 0.000000 4.165421 0.000004 11.589622 -20.025018 -0.323713 -0.000000 3.320822 0.000003 4.859709 10.507785 -5.019490 0.000002 2.111515 0.272454 -10.059698 0.257483 -2.768763 0.548648 2.681382 -0.072018 17.656732 -3.524424 1.299587 1.957741 0.000001 -0.000002 -10.251203 -11.043515 -8.440901 3.838815 -0.000004 -0.000001 -0.116630 -13.021270 -1.363686 3.567674 -0.000000 0.000005 6.796925 -12.141042 15.122689 -0.541082 2.681386 -0.072018 -13.762449 -0.320011 -4.350410 -1.957741 0.000004 0.000002 6.279366 26.959535 22.474469 -3.838814 -0.000001 0.000001 -42.447385 -25.117857 71.562945 -3.567677 -0.000004 0.000002 -34.236344 6.451916 1.688551 1.362270 -0.000001 0.000000 26.745557 -28.030120 28.928371 0.000001 -5.729232 -0.000004 -11.343727 26.936456 19.561491 -0.000001 -6.006452 -0.000004 -8.778282 3.508549 18.763209 0.000000 -0.885476 2.043405 -0.000001 -0.000007 -0.000005 -1.362270 -0.000001 0.000000 -31.338841 -29.327398 -3.775237 0.000001 -5.729234 -0.000004 22.118519 21.193604 -27.337665 0.000001 -6.006454 -0.000004 10.996444 -7.246488 -26.137956 -0.000000 -0.885476 2.043405 0.000003 -0.000003 -0.000007 
-0.595053 11.366449 0.313500 2.413143 18.332646 -1.869235 0.000000 4.165418 0.000004 11.510015 -20.033595 -0.315121 -0.000000 3.320819 0.000002 4.547937 10.605708 -4.712196 0.000001 2.111523 0.272454 -9.798012 0.355201 -2.543738 0.548649 2.681384 -0.072018 17.588345 -3.658546 1.353183 1.957741 0.000003 -0.000000 -10.063650 -10.989893 -8.769511 3.838817 -0.000002 -0.000003 -0.171753 -12.953736 -1.402661 3.567673 -0.000005 0.000003 6.980699 -12.051205 15.103107 -0.541081 2.681385 -0.072016 -13.821680 -0.342777 -4.375213 -1.957742 -0.000003 0.000002 6.576477 27.058138 22.409414 -3.838817 -0.000002 0.000001 -42.420235 -25.063167 71.525666 -3.567678 -0.000000 0.000001 -34.196455 6.490892 1.602661 1.362270 -0.000001 0.000000 26.775327 -28.072639 29.139506 -0.000001 -5.729235 -0.000004 -11.133374 26.998725 19.361027 0.000000 -6.006453 -0.000006 -8.761762 3.537618 18.638164 -0.000000 -0.885473 2.043405 -0.000002 -0.000002 -0.000001 -1.362270 -0.000001 0.000000 -31.262227 -29.303769 -3.751832 0.000001 -5.729236 -0.000004 22.124006 21.228105 -27.393911 -0.000000 -6.006450 -0.000004 10.966185 -7.285659 -26.144533 -0.000000 -0.885476 2.043405 0.000005 -0.000005 0.000002 
-0.597646 11.365254 0.314274 2.333874 18.334330 -1.795288 0.000000 4.165423 0.000004 11.429029 -20.053070 -0.277562 0.000002 3.320824 0.000002 4.135665 10.726232 -4.401945 0.000001 2.111521 0.272457 -9.386076 0.433525 -2.360388 0.548650 2.681386 -0.072018 17.524875 -3.796088 1.398968 1.957743 0.000010 -0.000001 -9.864563 -10.818097 -9.096492 3.838814 0.000002 0.000001 -0.211487 -12.930146 -1.450361 3.567678 0.000001 0.000001 7.119618 -12.007113 15.150007 -0.541080 2.681382 -0.072017 -13.896232 -0.334988 -4.396448 -1.957740 0.000000 0.000002 6.887440 27.236296 22.339283 -3.838811 -0.000000 0.000002 -42.519454 -25.066733 71.367793 -3.567676 0.000001 -0.000003 -34.198016 6.484251 1.573256 1.362270 0.000000 -0.000000 26.850706 -28.099806 29.200951 -0.000001 -5.729235 -0.000003 -11.092054 27.031353 19.284407 0.000000 -6.006451 -0.000004 -8.771223 3.503888 18.598720 0.000000 -0.885474 2.043405 -0.000002 -0.000006 -0.000006 -1.362270 0.000000 -0.000000 -31.194109 -29.288544 -3.731490 0.000001 -5.729234 -0.000004 22.147650 21.245160 -27.403665 0.000001 -6.006452 -0.000004 10.969383 -7.335792 -26.190565 0.000000 -0.885474 2.043405 -0.000001 -0.000004 -0.000003 
-0.600388 11.364248 0.315492 2.247941 18.341833 -1.703130 -0.000000 4.165419 0.000004 11.301004 -20.095163 -0.232832 0.000000 3.320819 0.000002 3.765521 10.865567 -4.090901 -0.000000 2.111525 0.272457 -8.980904 0.515290 -2.166175 0.548649 2.681385 -0.072018 17.536536 -3.942314 1.418825 1.957742 0.000003 -0.000002 -9.715975 -10.735982 -9.440711 3.838815 -0.000006 -0.000002 -0.273165 -12.840971 -1.465494 3.567678 0.000002 0.000002 7.227639 -11.903628 15.161075 -0.541081 2.681385 -0.072018 -13.928764 -0.353287 -4.404949 -1.957742 -0.000004 0.000003 7.304396 27.251137 22.168183 -3.838813 0.000004 0.000002 -42.416086 -24.954357 71.468962 -3.567676 -0.000000 -0.000000 -34.140144 6.580583 1.573336 1.362270 -0.000002 0.000000 26.946686 -28.130312 29.171461 -0.000001 -5.729236 -0.000004 -11.136810 27.049856 19.247162 -0.000001 -6.006453 -0.000006 -8.725064 3.494975 18.635362 -0.000000 -0.885476 2.043405 -0.000001 -0.000000 0.000001 -1.362270 -0.000000 -0.000000 -31.122027 -29.263040 -3.708562 0.000000 -5.729234 -0.000004 22.170564 21.248278 -27.494816 0.000001 -6.006449 -0.000004 10.973723 -7.370003 -26.176239 0.000000 -0.885476 2.043405 -0.000003 -0.000001 0.000009 
-0.601951 11.363880 0.316241 2.156442 18.354072 -1.634627 0.000000 4.165420 0.000004 11.198509 -20.131597 -0.181000 0.000000 3.320816 0.000002 3.277579 11.031655 -3.771011 0.000000 2.111523 0.272457 -8.433228 0.538555 -2.014104 0.548649 2.681381 -0.072017 17.492092 -4.079846 1.503778 1.957740 0.000004 -0.000000 -9.543052 -10.768650 -9.884243 3.838817 -0.000000 -0.000002 -0.343295 -12.666602 -1.414083 3.567674 -0.000002 0.000002 7.333939 -11.717409 15.130209 -0.541079 2.681384 -0.072017 -13.971411 -0.356652 -4.399485 -1.957739 -0.000001 0.000002 7.669802 27.410960 22.015839 -3.838816 -0.000004 -0.000001 -42.484443 -24.959781 71.394670 -3.567674 -0.000003 -0.000004 -34.107041 6.609964 1.504495 1.362270 -0.000002 0.000002 27.031283 -28.164869 29.204646 -0.000000 -5.729234 -0.000004 -11.105603 27.076304 19.183790 0.000000 -6.006453 -0.000004 -8.744439 3.455829 18.629898 -0.000000 -0.885476 2.043405 0.000003 -0.000005 -0.000006 -1.362270 -0.000002 0.000002 -31.049309 -29.244281 -3.685973 0.000002 -5.729233 -0.000004 22.202169 21.228785 -27.539213 0.000001 -6.006452 -0.000004 10.970109 -7.369181 -26.198039 0.000000 -0.885479 2.043405 0.000003 -0.000004 0.000002 
